#!OML:ASF F:\VICON\USERDATA\INSTALL\rory3\rory3.ASF
:FULLY-SPECIFIED
:DEGREES
97
root 0.184486 17.9339 -7.35174 -1.00623 -3.99321 -7.55793
lowerback 10.5248 2.13753 6.71716
upperback -0.25062 3.80581 2.14078
thorax -5.88867 1.69822 -2.09818
lowerneck -18.6739 -3.34611 -1.19747
upperneck 20.1482 -4.35014 0.226785
head 9.47705 -2.08983 -0.311281
rclavicle 5.61479e-015 -1.14612e-014
rhumerus -21.234 -8.70627 -80.995
rradius 31.5916
rwrist -1.19986
rhand -20.4344 23.1331
rfingers 7.12502
rthumb 5.92044 -6.76416
lclavicle 5.61479e-015 -1.14612e-014
lhumerus -37.5697 8.94428 78.6543
lradius 22.8793
lwrist 5.81624
lhand -29.8446 16.7888
lfingers 7.12502
lthumb -3.1674 46.745
rfemur 7.661 7.09743 34.3058
rtibia 21.303
rfoot -19.525 -8.95912
rtoes -3.12393
lfemur -25.2379 -6.65136 -9.07438
ltibia 13.982
lfoot -4.78845 6.60248
ltoes 0.829459
98
root 0.203439 17.9198 -7.17036 -0.916344 -4.21617 -7.37794
lowerback 10.5655 2.24189 6.6203
upperback -0.346959 3.93499 2.02537
thorax -6.00128 1.75695 -2.18853
lowerneck -18.6478 -3.3553 -1.06518
upperneck 20.1655 -4.39036 0.176563
head 9.47401 -2.10417 -0.355377
rclavicle -2.47044e-015 2.29845e-014
rhumerus -21.2884 -8.68725 -81.032
rradius 32.1063
rwrist -1.32553
rhand -20.6758 22.7832
rfingers 7.12502
rthumb 5.68741 -7.12045
lclavicle -2.47044e-015 2.29845e-014
lhumerus -37.8486 8.75228 78.66
lradius 22.9715
lwrist 5.71518
lhand -28.9705 11.6005
lfingers 7.12502
lthumb -2.32325 41.5676
rfemur 7.94969 7.00907 33.9632
rtibia 21.8537
rfoot -18.7452 -9.3675
rtoes -1.33066
lfemur -24.5624 -6.2509 -9.41863
ltibia 12.2987
lfoot -4.61804 6.39463
ltoes -2.2133
99
root 0.219923 17.8898 -6.9939 -0.797382 -4.29653 -7.32117
lowerback 10.526 2.27257 6.58036
upperback -0.431099 3.96996 1.98271
thorax -6.06508 1.77093 -2.21634
lowerneck -18.6988 -3.32249 -0.953396
upperneck 20.3538 -4.36368 0.108009
head 9.54472 -2.08949 -0.396958
rclavicle 3.55716e-015 -3.05631e-015
rhumerus -21.1616 -8.66368 -81.0407
rradius 32.3339
rwrist -1.54791
rhand -20.473 22.9163
rfingers 7.12502
rthumb 5.88315 -6.98198
lclavicle 3.55716e-015 -3.05631e-015
lhumerus -38.1067 8.71479 78.6209
lradius 22.8309
lwrist 5.80202
lhand -27.7694 17.1013
lfingers 7.12502
lthumb -1.16323 47.0779
rfemur 8.26867 7.2298 33.8973
rtibia 22.2848
rfoot -19.9021 -8.75796
rtoes -4.17332
lfemur -24.4129 -6.00581 -9.58751
ltibia 11.4984
lfoot -4.21978 6.44146
ltoes -3.88754
100
root 0.241973 17.8102 -6.81784 -0.773738 -4.19291 -7.48864
lowerback 10.4603 2.23997 6.84553
upperback -0.335581 3.94867 2.0047
thorax -5.91275 1.75987 -2.331
lowerneck -18.8832 -3.34467 -0.898051
upperneck 20.3247 -4.39718 0.0622674
head 9.56574 -2.10516 -0.429449
rclavicle -1.04486e-014 -2.045e-014
rhumerus -20.6955 -9.03484 -80.8959
rradius 31.8481
rwrist -0.964666
rhand -20.2005 24.5478
rfingers 7.12502
rthumb 6.14628 -5.34307
lclavicle -1.04486e-014 -2.045e-014
lhumerus -37.9724 9.04303 78.4354
lradius 22.6873
lwrist 4.53702
lhand -26.9302 21.9671
lfingers 7.12502
lthumb -0.352682 51.9465
rfemur 8.72489 7.49277 34.1752
rtibia 22.7313
rfoot -18.9564 -9.87771
rtoes -1.49176
lfemur -24.939 -6.59826 -9.26785
ltibia 11.7794
lfoot -3.54184 6.9673
ltoes -3.31029
101
root 0.259009 17.8143 -6.63664 -0.815792 -4.02485 -7.56288
lowerback 10.3916 2.20356 7.02294
upperback -0.167041 3.90427 1.99861
thorax -5.68692 1.74447 -2.42114
lowerneck -19.156 -3.36726 -0.867194
upperneck 20.2082 -4.42955 0.049046
head 9.57349 -2.11852 -0.44712
rclavicle -3.98144e-014 2.18663e-015
rhumerus -20.1727 -9.37602 -80.8848
rradius 31.9683
rwrist -1.04633
rhand -19.9729 24.1688
rfingers 7.12502
rthumb 6.36597 -5.71552
lclavicle -3.98144e-014 2.18663e-015
lhumerus -37.5474 9.93736 77.9544
lradius 21.9369
lwrist 2.851
lhand -28.5253 18.9891
lfingers 7.12502
lthumb -1.89326 48.9604
rfemur 9.14229 7.63626 34.3047
rtibia 23.2709
rfoot -19.2386 -9.76465
rtoes -2.1412
lfemur -24.8198 -5.85534 -9.73074
ltibia 12.7568
lfoot -3.70763 5.7728
ltoes -0.0308958
102
root 0.276167 17.8126 -6.45192 -0.926305 -3.87214 -7.49729
lowerback 10.5383 2.14527 6.96189
upperback -0.16049 3.83362 2.01575
thorax -5.77407 1.70852 -2.36704
lowerneck -19.2218 -3.30087 -0.820087
upperneck 20.279 -4.34269 0.0110416
head 9.60798 -2.0781 -0.458152
rclavicle 4.5828e-014 5.49764e-015
rhumerus -20.2509 -9.23559 -80.8442
rradius 32.5455
rwrist -1.3441
rhand -20.1087 23.4511
rfingers 7.12502
rthumb 6.23489 -6.43717
lclavicle 4.5828e-014 5.49764e-015
lhumerus -37.553 10.426 77.7483
lradius 21.1922
lwrist 2.52925
lhand -29.3911 11.3926
lfingers 7.12502
lthumb -2.72947 41.3549
rfemur 9.61527 7.90227 34.3344
rtibia 23.8022
rfoot -19.4051 -9.55605
rtoes -3.614
lfemur -24.955 -4.93132 -10.3953
ltibia 14.3259
lfoot -3.25618 4.43046
ltoes 0.702762
103
root 0.297112 17.8004 -6.26332 -0.96677 -3.67813 -7.24906
lowerback 10.5352 2.10591 6.73557
upperback -0.262884 3.7569 1.96499
thorax -5.89811 1.67052 -2.28659
lowerneck -18.9372 -3.25159 -0.811507
upperneck 20.2389 -4.29458 0.0755595
head 9.54324 -2.04941 -0.424859
rclavicle -2.99666e-014 -1.2129e-014
rhumerus -20.6481 -9.36159 -80.7177
rradius 32.9397
rwrist -1.28957
rhand -20.4703 23.1247
rfingers 7.12502
rthumb 5.88581 -6.77356
lclavicle -2.99666e-014 -1.2129e-014
lhumerus -37.7167 11.025 77.3541
lradius 20.4031
lwrist 1.71741
lhand -28.2631 12.1573
lfingers 7.12502
lthumb -1.64001 42.1307
rfemur 10.1547 8.04127 34.1261
rtibia 24.0921
rfoot -19.0406 -9.47634
rtoes -5.1308
lfemur -25.5643 -4.30886 -11.1753
ltibia 16.5837
lfoot -2.89794 3.68856
ltoes 0.138772
